# xmcd CD database file
#
# Track frame offsets:
#	150
#	13208
#	24413
#	36962
#	48247
#	60656
#	74508
#	86033
#	100288
#	115007
#
# Disc length: 1719 seconds
#
# Revision: 0
# Processed by: cddbd v1.5.2PL0 Copyright (c) Steve Scherf et al.
# Submitted via: CDex 1.70beta2
#
DISCID=8206b50a
DTITLE=Lacy J Dalton - Lacy J Dalton
DYEAR=1980
DGENRE=Country
TTITLE0=Lacy J Dalton - Crazy Blue Eyes
TTITLE1=Lacy J Dalton - High Like An Angel
TTITLE2=Lacy J Dalton - Honky Tonk Man
TTITLE3=Lacy J Dalton - Carolina Come On
TTITLE4=Lacy J Dalton - Beer Drinking Song
TTITLE5=Lacy J Dalton - Tennessee Waltz
TTITLE6=Lacy J Dalton - Late Night Kind Of Lonesome
TTITLE7=Lacy J Dalton - Losing Kind Of Love
TTITLE8=Lacy J Dalton - Are There Any Cowboys Left (In The Good Old U.S.A.)?
TTITLE9=Lacy J Dalton - Turn My Head Around
EXTD=YEAR: 1980
EXTT0=
EXTT1=
EXTT2=
EXTT3=
EXTT4=
EXTT5=
EXTT6=
EXTT7=
EXTT8=
EXTT9=
PLAYORDER=
